# xmcd CD database file
#
# Track frame offsets:
#	150
#	50030
#	73967
#	108268
#	143037
#	183143
#
# Disc length: 3970 seconds
#
# Revision: 0
# Processed by: cddbd v1.5.2PL0 Copyright (c) Steve Scherf et al.
# Submitted via: CDex 1.51
#
DISCID=540f8006
DTITLE=Fumio Miyashita - Adjustment
DYEAR=1999
DGENRE=New Age
TTITLE0=Cosmic Shower
TTITLE1=Ally
TTITLE2=Urban Dream
TTITLE3=Freedom Valley
TTITLE4=Shape Of Heart
TTITLE5=Laughing Hill
EXTD=YEAR: 1999
EXTT0=
EXTT1=
EXTT2=
EXTT3=
EXTT4=
EXTT5=
PLAYORDER=
